<?xml version="1.0" encoding="UTF-8"?>
<svg id="Layer_1" data-name="Layer 1" xmlns="http://www.w3.org/2000/svg" viewBox="0 0 144 144">
  <defs>
    <style>
      .cls-1 {
        fill: red;
        stroke-width: 0px;
      }
    </style>
  </defs>
  <path class="cls-1" d="M103.72,63.81v30.22c.03,2.37-.54,4.71-1.67,6.79-1.42,2.46-3.73,4.27-6.46,5.06-2.62.88-5.41,1.17-8.16.86-3.49-.34-6.48-2.65-7.69-5.94-1.94-4.77.17-10.23,4.82-12.45,2.97-1.21,6.06-2.09,9.22-2.62.44-.09.88-.19,1.33-.26,3-.53,3.74-1.91,3.78-4.52,0-3.5.12-7,0-10.52-.24-5.55-.17-11.1-.2-16.64,0-2.78-.73-3.39-3.47-2.85-3.93.78-7.85,1.6-11.77,2.4l-19.91,4.06c-2.15.44-2.79,1.18-2.79,3.38v39.54c.05,1.65-.04,3.31-.29,4.94-.88,4.83-3.55,8-8.3,9.47-1.72.55-3.51.89-5.31,1-5.85.27-10.85-3.53-10.85-9.85-.14-3.8,2.03-7.31,5.5-8.88,2.76-1.41,5.82-1.81,8.78-2.52.88-.2,1.78-.32,2.64-.57,1.59-.35,2.71-1.77,2.67-3.4v-48.41c-.14-2.08,1.34-3.93,3.41-4.23,3.17-.73,6.37-1.36,9.56-2,3.87-.79,7.75-1.55,11.63-2.32l18.71-3.7c.3-.06.6-.09.89-.13,2.73-.37,4,.68,4,3.43,0,8.42,0,16.84,0,25.26v5.41h-.07Z"/>
  <path class="cls-1" d="M115.46,6c12.44.01,22.53,10.1,22.54,22.54v86.92c-.01,12.44-10.1,22.53-22.54,22.54H28.54c-12.44-.01-22.53-10.1-22.54-22.54V28.54c.01-12.44,10.1-22.53,22.54-22.54h86.92M115.46,0H28.54C12.8.04.04,12.8,0,28.54v86.92c.04,15.74,12.8,28.5,28.54,28.54h86.92c15.74-.04,28.5-12.8,28.54-28.54V28.54c-.04-15.74-12.8-28.5-28.54-28.54Z"/>
</svg>