<svg width="68" height="87" viewBox="0 0 68 87" fill="none" xmlns="http://www.w3.org/2000/svg">
<path d="M67.72 34.81V65.03C67.75 67.4 67.18 69.74 66.05 71.82C64.63 74.28 62.32 76.09 59.59 76.88C56.97 77.76 54.18 78.05 51.43 77.74C47.94 77.4 44.95 75.09 43.74 71.8C41.8 67.03 43.91 61.57 48.56 59.35C51.53 58.14 54.62 57.26 57.78 56.73C58.22 56.64 58.66 56.54 59.11 56.47C62.11 55.94 62.85 54.56 62.89 51.95C62.89 48.45 63.01 44.95 62.89 41.43C62.65 35.88 62.72 30.33 62.69 24.79C62.69 22.01 61.96 21.4 59.22 21.94C55.29 22.72 51.37 23.54 47.45 24.34L27.54 28.4C25.39 28.84 24.75 29.58 24.75 31.78V71.32C24.8 72.97 24.71 74.63 24.46 76.26C23.58 81.09 20.91 84.26 16.16 85.73C14.44 86.28 12.65 86.62 10.85 86.73C4.99998 87 -1.66669e-05 83.2 -1.66669e-05 76.88C-0.140017 73.08 2.02998 69.57 5.49998 68C8.25998 66.59 11.32 66.19 14.28 65.48C15.16 65.28 16.06 65.16 16.92 64.91C18.51 64.56 19.63 63.14 19.59 61.51V13.1C19.45 11.02 20.93 9.17001 23 8.87001C26.17 8.14001 29.37 7.51001 32.56 6.87001C36.43 6.08001 40.31 5.32001 44.19 4.55001L62.9 0.850015C63.2 0.790015 63.5 0.760014 63.79 0.720014C66.52 0.350014 67.79 1.40002 67.79 4.15002C67.79 12.57 67.79 20.99 67.79 29.41V34.82H67.72V34.81Z" fill="#FF0000"/>
</svg>
