<svg width="92" height="58" viewBox="0 0 92 58" fill="none" xmlns="http://www.w3.org/2000/svg">
<path d="M92 9.19999V9.04999C92.01 8.45999 91.95 7.86999 91.82 7.29999C91.72 6.90999 91.59 6.52999 91.43 6.15999C90.25 3.01999 87.25 0.939989 83.9 0.929989H41.44L8.88001 0.73999C3.98001 0.73999 1.00001 3.73999 0.220006 6.73999C0.0300058 7.47999 -0.0299931 8.23999 0.0200069 8.99999V48.94C-0.0299931 53.48 3.60001 57.2 8.14001 57.26H83.89C88.42 57.19 92.05 53.47 92 48.94V9.19999ZM86.18 16.39V48.46L63 29.3L86.18 16.39ZM29 29.26L5.83001 48.46V16L29 29.26ZM34.45 32.37L41 36.11C44.03 37.75 47.7 37.75 50.73 36.11L57.54 32.32L80.45 51.32H11.57L34.45 32.37ZM85.11 10.23L47.92 31C46.65 31.7 45.11 31.7 43.84 31L6.84001 9.82999C6.43001 9.62999 6.08001 9.30999 5.84001 8.91999C6.01001 7.79999 6.96001 6.94999 8.10001 6.91999H41.41L83.11 7.14999C84.22 7.01999 85.32 7.48999 86 8.38999C86.07 8.58999 86.12 8.80999 86.15 9.01999C86.15 9.42999 85.75 9.86999 85.15 10.23H85.11Z" fill="#FF0000"/>
</svg>
