<?xml version="1.0" encoding="UTF-8"?>
<svg id="Layer_1" data-name="Layer 1" xmlns="http://www.w3.org/2000/svg" viewBox="0 0 144 144">
  <defs>
    <style>
      .cls-1 {
        fill: red;
        stroke-width: 0px;
      }
    </style>
  </defs>
  <path class="cls-1" d="M118,52.2v-.15c.01-.59-.05-1.18-.18-1.75-.1-.39-.23-.77-.39-1.14-1.18-3.14-4.18-5.22-7.53-5.23h-42.46l-32.56-.19c-4.9,0-7.88,3-8.66,6-.19.74-.25,1.5-.2,2.26v39.94c-.05,4.54,3.58,8.26,8.12,8.32h75.75c4.53-.07,8.16-3.79,8.11-8.32v-39.74ZM112.18,59.39v32.07l-23.18-19.16,23.18-12.91ZM55,72.26l-23.17,19.2v-32.46l23.17,13.26ZM60.45,75.37l6.55,3.74c3.03,1.64,6.7,1.64,9.73,0l6.81-3.79,22.91,19H37.57l22.88-18.95ZM111.11,53.23l-37.19,20.77c-1.27.7-2.81.7-4.08,0l-37-21.17c-.41-.2-.76-.52-1-.91.17-1.12,1.12-1.97,2.26-2h33.31l41.7.23c1.11-.13,2.21.34,2.89,1.24.07.2.12.42.15.63,0,.41-.4.85-1,1.21h-.04Z"/>
  <path class="cls-1" d="M115.46,6c12.44.01,22.53,10.1,22.54,22.54v86.92c-.01,12.44-10.1,22.53-22.54,22.54H28.54c-12.44-.01-22.53-10.1-22.54-22.54V28.54c.01-12.44,10.1-22.53,22.54-22.54h86.92M115.46,0H28.54C12.8.04.04,12.8,0,28.54v86.92c.04,15.74,12.8,28.5,28.54,28.54h86.92c15.74-.04,28.5-12.8,28.54-28.54V28.54c-.04-15.74-12.8-28.5-28.54-28.54Z"/>
</svg>