<svg width="144" height="144" viewBox="0 0 144 144" fill="none" xmlns="http://www.w3.org/2000/svg">
<path d="M47.62 57C47.29 59.29 47.14 61.61 47.19 63.92C47.19 71.18 46.93 78.44 47.44 85.69C47.54 87.65 48.09 89.56 49.05 91.27C50.9 94.47 53.85 95.97 57.39 96.45C59.71 96.73 62.05 96.85 64.39 96.81C70.55 96.81 76.72 96.93 82.88 96.72C84.31 96.72 85.74 96.59 87.15 96.36C92.38 95.68 96.34 91.28 96.45 86C96.68 83.62 96.77 81.22 96.74 78.83V71.31C96.67 68.63 96.83 65.31 96.67 61.95C96.59 60.43 96.59 58.9 96.37 57.39C96.16 55.54 95.52 53.75 94.52 52.18C92.8 49.68 90.09 48.03 87.08 47.66C84.6 47.3 82.1 47.16 79.6 47.22C73.79 47.22 67.98 47.1 62.16 47.28C60.59 47.3 59.03 47.39 57.47 47.57C55.41 47.78 53.44 48.52 51.75 49.72C49.45 51.49 47.96 54.12 47.62 57ZM88 52.4C89.97 52.4 91.57 54.01 91.56 55.98C91.56 55.98 91.56 55.99 91.56 56C91.53 57.95 89.92 59.51 87.96 59.48C86 59.45 84.45 57.84 84.48 55.88C84.51 53.96 86.08 52.41 88 52.4ZM72.17 56.62C80.66 56.74 87.45 63.73 87.33 72.22C87.21 80.71 80.22 87.5 71.73 87.38C63.28 87.26 56.51 80.34 56.57 71.89C56.61 63.42 63.51 56.58 71.98 56.62C72.04 56.62 72.11 56.62 72.17 56.62Z" fill="#FF0000"/>
<path d="M49.41 31.47C46.8 31.56 44.22 32.14 41.82 33.17C37.51 35.08 34.19 38.71 32.67 43.17C31.77 45.91 31.35 48.79 31.43 51.68V92.18C31.41 94.21 31.6 96.24 32 98.23C33.46 105.08 37.53 109.6 44.22 111.69C46.69 112.38 49.25 112.7 51.82 112.62H88.82C90.82 112.62 92.82 112.62 94.82 112.52C97.4 112.42 99.94 111.85 102.31 110.83C106.57 108.95 109.87 105.39 111.42 101C112.26 98.64 112.68 96.15 112.64 93.64V72.05C112.64 64.81 112.64 57.58 112.64 50.35C112.7 47.41 112.12 44.5 110.94 41.81C108.77 36.87 104.38 33.26 99.11 32.09C96.53 31.53 93.89 31.29 91.25 31.37H55.45C53.43 31.37 51.42 31.34 49.41 31.47ZM79.73 42C81.84 42 83.94 42.05 86.04 42.26C89.47 42.47 92.77 43.67 95.53 45.71C98.75 48.24 100.86 51.9 101.45 55.95C101.76 58.05 101.92 60.16 101.94 62.28C102.05 65.51 101.94 68.75 101.94 71.98V79.76C101.94 81.89 101.94 84.03 101.67 86.15C101.47 89.27 100.46 92.29 98.74 94.9C96.52 98.13 93.15 100.39 89.32 101.23C87.75 101.6 86.14 101.81 84.53 101.88C78.04 102.19 71.53 102.04 65.04 102.05C62.95 102.05 60.87 101.99 58.78 101.86C55.62 101.78 52.52 100.91 49.78 99.33C45.89 96.96 43.22 93.02 42.48 88.52C42.16 86.64 42 84.73 42 82.82C41.81 76.73 41.89 70.65 41.91 64.56C41.91 62.72 41.98 60.87 42.09 59.03C42.17 55.86 43.04 52.76 44.61 50C46.95 46.06 50.91 43.35 55.43 42.6C57.64 42.21 59.88 42.01 62.12 42C68 41.88 73.86 42 79.73 42Z" fill="#FF0000"/>
<path d="M71.91 82.15C77.52 82.18 82.08 77.66 82.11 72.05C82.14 66.44 77.62 61.88 72.01 61.85C66.4 61.82 61.84 66.34 61.81 71.95C61.81 71.97 61.81 71.98 61.81 72C61.81 77.59 66.32 82.12 71.91 82.15Z" fill="#FF0000"/>
</svg>
