<?xml version="1.0" encoding="UTF-8"?>
<svg id="Layer_1" data-name="Layer 1" xmlns="http://www.w3.org/2000/svg" viewBox="0 0 144 144">
  <defs>
    <style>
      .cls-1 {
        fill: red;
        stroke-width: 0px;
      }
    </style>
  </defs>
  <path class="cls-1" d="M49.41,31.47c-2.61.09-5.19.67-7.59,1.7-4.31,1.91-7.63,5.54-9.15,10-.9,2.74-1.32,5.62-1.24,8.51v40.5c-.02,2.03.17,4.06.57,6.05,1.46,6.85,5.53,11.37,12.22,13.46,2.47.69,5.03,1.01,7.6.93h37c2,0,4,0,6-.1,2.58-.1,5.12-.67,7.49-1.69,4.26-1.88,7.56-5.44,9.11-9.83.84-2.36,1.26-4.85,1.22-7.36v-21.59c0-7.24,0-14.47,0-21.7.06-2.94-.52-5.85-1.7-8.54-2.17-4.94-6.56-8.55-11.83-9.72-2.58-.56-5.22-.8-7.86-.72h-35.8c-2.02,0-4.03-.03-6.04.1ZM79.73,42c2.11,0,4.21.05,6.31.26,3.43.21,6.73,1.41,9.49,3.45,3.22,2.53,5.33,6.19,5.92,10.24.31,2.1.47,4.21.49,6.33.11,3.23,0,6.47,0,9.7v7.78c0,2.13,0,4.27-.27,6.39-.2,3.12-1.21,6.14-2.93,8.75-2.22,3.23-5.59,5.49-9.42,6.33-1.57.37-3.18.58-4.79.65-6.49.31-13,.16-19.49.17-2.09,0-4.17-.06-6.26-.19-3.16-.08-6.26-.95-9-2.53-3.89-2.37-6.56-6.31-7.3-10.81-.32-1.88-.48-3.79-.48-5.7-.19-6.09-.11-12.17-.09-18.26,0-1.84.07-3.69.18-5.53.08-3.17.95-6.27,2.52-9.03,2.34-3.94,6.3-6.65,10.82-7.4,2.21-.39,4.45-.59,6.69-.6,5.88-.12,11.74,0,17.61,0Z"/>
  <path class="cls-1" d="M47.62,57c-.33,2.29-.48,4.61-.43,6.92,0,7.26-.26,14.52.25,21.77.1,1.96.65,3.87,1.61,5.58,1.85,3.2,4.8,4.7,8.34,5.18,2.32.28,4.66.4,7,.36,6.16,0,12.33.12,18.49-.09,1.43,0,2.86-.13,4.27-.36,5.23-.68,9.19-5.08,9.3-10.36.23-2.38.32-4.78.29-7.17v-7.52c-.07-2.68.09-6-.07-9.36-.08-1.52-.08-3.05-.3-4.56-.21-1.85-.85-3.64-1.85-5.21-1.72-2.5-4.43-4.15-7.44-4.52-2.48-.36-4.98-.5-7.48-.44-5.81,0-11.62-.12-17.44.06-1.57.02-3.13.11-4.69.29-2.06.21-4.03.95-5.72,2.15-2.3,1.77-3.79,4.4-4.13,7.28ZM88,52.4c1.97,0,3.57,1.61,3.56,3.58,0,0,0,.01,0,.02-.03,1.95-1.64,3.51-3.6,3.48s-3.51-1.64-3.48-3.6c.03-1.92,1.6-3.47,3.52-3.48ZM72.17,56.62c8.49.12,15.28,7.11,15.16,15.6-.12,8.49-7.11,15.28-15.6,15.16-8.45-.12-15.22-7.04-15.16-15.49.04-8.47,6.94-15.31,15.41-15.27.06,0,.13,0,.19,0Z"/>
  <path class="cls-1" d="M71.91,82.15c5.61.03,10.17-4.49,10.2-10.1s-4.49-10.17-10.1-10.2c-5.61-.03-10.17,4.49-10.2,10.1,0,.02,0,.03,0,.05,0,5.59,4.51,10.12,10.1,10.15Z"/>
  <path class="cls-1" d="M115.46,6c12.44.01,22.53,10.1,22.54,22.54v86.92c-.01,12.44-10.1,22.53-22.54,22.54H28.54c-12.44-.01-22.53-10.1-22.54-22.54V28.54c.01-12.44,10.1-22.53,22.54-22.54h86.92M115.46,0H28.54C12.8.04.04,12.8,0,28.54v86.92c.04,15.74,12.8,28.5,28.54,28.54h86.92c15.74-.04,28.5-12.8,28.54-28.54V28.54c-.04-15.74-12.8-28.5-28.54-28.54Z"/>
</svg>