<svg width="73" height="94" viewBox="0 0 73 94" fill="none" xmlns="http://www.w3.org/2000/svg">
<path d="M37.67 9.99999C29.49 9.99999 23.05 12.24 17.87 17.5C13.75 21.69 11.27 27.22 10.87 33.09C10.7 34.87 10.75 36.67 11 38.44C11.37 41.14 12.52 43.67 14.31 45.72C15.05 46.5 15.31 47.61 15 48.64C14.66 50.03 14.32 51.43 13.94 52.82C13.49 54.45 12.49 54.96 10.94 54.32C7.05 52.73 3.97 49.62 2.44 45.7C-0.939998 37.96 -0.769996 29.12 2.91 21.52C8.01 10.45 16.91 4.13999 28.69 1.51999C31.77 0.829991 34.92 0.499991 38.08 0.519991C46.49 0.519991 54.23 2.76999 60.85 8.18999C67.16 13.35 71.17 19.96 71.85 28.1C72.73 38.83 70.59 48.96 63.79 57.62C58.27 64.62 50.91 68.12 41.93 67.62C37.57 67.49 33.5 65.45 30.78 62.04C30.66 61.89 30.58 61.6 30.34 61.67C30.1 61.74 30.14 62.01 30.09 62.22C29.27 65.44 28.33 68.65 27.64 71.9C26.02 78.86 22.92 85.39 18.55 91.05C18.11 91.64 17.67 92.23 17.21 92.81C16.99 93.18 16.56 93.38 16.14 93.29C15.66 93.14 15.54 92.74 15.47 92.29C15.18 90.29 15.01 88.18 14.82 86.12C14.21 79.52 15.4 73.12 16.98 66.79C18.83 59.34 20.52 51.85 22.3 44.38C22.43 43.73 22.36 43.05 22.1 42.44C20.33 37.76 20.37 32.6 22.22 27.95C22.98 26.09 24.18 24.44 25.73 23.16C29.16 20.25 34.33 20.5 36.85 23.76C38.33 25.85 38.89 28.45 38.41 30.97C37.85 34.4 36.99 37.77 35.85 41.05C35.14 43.4 34.37 45.73 33.85 48.13C32.52 54.25 36.99 58.36 42.42 58.25C45.37 58.16 48.19 56.97 50.3 54.9C52.98 52.3 55 49.09 56.19 45.55C57.57 41.69 58.4 37.65 58.65 33.55C58.93 30.79 58.79 28.01 58.24 25.29C56.31 16.95 50.85 12.29 42.66 10.53C41.02 10.17 39.35 9.98999 37.67 9.99999Z" fill="#FF0000"/>
</svg>
