<?xml version="1.0" encoding="UTF-8"?>
<svg id="Layer_1" data-name="Layer 1" xmlns="http://www.w3.org/2000/svg" viewBox="0 0 144 144">
  <defs>
    <style>
      .cls-1 {
        fill: red;
        stroke-width: 0px;
      }
    </style>
  </defs>
  <path class="cls-1" d="M73.67,35c-8.18,0-14.62,2.24-19.8,7.5-4.12,4.19-6.6,9.72-7,15.59-.17,1.78-.12,3.58.13,5.35.37,2.7,1.52,5.23,3.31,7.28.74.78,1,1.89.69,2.92-.34,1.39-.68,2.79-1.06,4.18-.45,1.63-1.45,2.14-3,1.5-3.89-1.59-6.97-4.7-8.5-8.62-3.38-7.74-3.21-16.58.47-24.18,5.1-11.07,14-17.38,25.78-20,3.08-.69,6.23-1.02,9.39-1,8.41,0,16.15,2.25,22.77,7.67,6.31,5.16,10.32,11.77,11,19.91.88,10.73-1.26,20.86-8.06,29.52-5.52,7-12.88,10.5-21.86,10-4.36-.13-8.43-2.17-11.15-5.58-.12-.15-.2-.44-.44-.37s-.2.34-.25.55c-.82,3.22-1.76,6.43-2.45,9.68-1.62,6.96-4.72,13.49-9.09,19.15-.44.59-.88,1.18-1.34,1.76-.22.37-.65.57-1.07.48-.48-.15-.6-.55-.67-1-.29-2-.46-4.11-.65-6.17-.61-6.6.58-13,2.16-19.33,1.85-7.45,3.54-14.94,5.32-22.41.13-.65.06-1.33-.2-1.94-1.77-4.68-1.73-9.84.12-14.49.76-1.86,1.96-3.51,3.51-4.79,3.43-2.91,8.6-2.66,11.12.6,1.48,2.09,2.04,4.69,1.56,7.21-.56,3.43-1.42,6.8-2.56,10.08-.71,2.35-1.48,4.68-2,7.08-1.33,6.12,3.14,10.23,8.57,10.12,2.95-.09,5.77-1.28,7.88-3.35,2.68-2.6,4.7-5.81,5.89-9.35,1.38-3.86,2.21-7.9,2.46-12,.28-2.76.14-5.54-.41-8.26-1.93-8.34-7.39-13-15.58-14.76-1.64-.36-3.31-.54-4.99-.53Z"/>
  <path class="cls-1" d="M115.46,6c12.44.01,22.53,10.1,22.54,22.54v86.92c-.01,12.44-10.1,22.53-22.54,22.54H28.54c-12.44-.01-22.53-10.1-22.54-22.54V28.54c.01-12.44,10.1-22.53,22.54-22.54h86.92M115.46,0H28.54C12.8.04.04,12.8,0,28.54v86.92c.04,15.74,12.8,28.5,28.54,28.54h86.92c15.74-.04,28.5-12.8,28.54-28.54V28.54c-.04-15.74-12.8-28.5-28.54-28.54Z"/>
</svg>