<svg width="90" height="90" viewBox="0 0 90 90" fill="none" xmlns="http://www.w3.org/2000/svg">
<path d="M45 90C20.15 90 -1.77247e-06 69.84 0.00999823 44.99C0.00999823 20.14 20.17 -0.00999628 45.02 3.72047e-06C69.87 3.72047e-06 90.02 20.16 90.01 45.01C90.01 45.34 90.01 45.67 90 46C89.57 69.84 69.77 90.19 45 90ZM14.07 30.71C14.07 31.07 14.1 31.42 14.18 31.77C14.76 33.97 17.01 35.28 19.2 34.7C19.22 34.7 19.25 34.69 19.27 34.68C19.81 34.55 20.34 34.37 20.88 34.23C25.56 33.04 30.35 32.37 35.18 32.23C39.24 32.07 43.31 32.21 47.36 32.63C50.26 32.93 53.15 33.39 56 34C59.06 34.67 62.07 35.56 65 36.67C67.15 37.47 69.23 38.45 71.21 39.61C72.55 40.56 74.32 40.66 75.76 39.87C77.15 39.02 77.93 37.44 77.76 35.81C77.53 34.35 76.61 33.1 75.28 32.45C72.54 30.92 69.69 29.62 66.74 28.54C63.12 27.24 59.39 26.24 55.61 25.54C52.96 25.03 50.29 24.65 47.61 24.38C45.15 24.13 42.66 24 40.15 24C38.47 24 36.78 24 35.09 24.06C32.61 24.13 30.09 24.34 27.69 24.63C24.1 25.04 20.55 25.77 17.09 26.79C15.33 27.29 14.1 28.88 14.07 30.71ZM37.68 39.41C34.81 39.41 31.95 39.59 29.1 39.94C25.82 40.35 22.58 41.03 19.42 42C18.63 42.24 17.97 42.78 17.58 43.5C16.84 44.67 16.92 46.17 17.77 47.26C18.57 48.44 20.05 48.95 21.41 48.52C23.2 48.05 24.99 47.52 26.82 47.22C31.21 46.45 35.67 46.17 40.12 46.38C43.86 46.53 47.58 47.02 51.23 47.83C53.26 48.29 55.26 48.85 57.23 49.53C60.44 50.64 63.52 52.08 66.43 53.83C67.2 54.27 68.12 54.38 68.98 54.13C70.28 53.83 71.26 52.77 71.44 51.45C71.73 50.11 71.15 48.74 70 48C69.63 47.74 69.24 47.5 68.84 47.28C66.24 45.78 63.51 44.51 60.69 43.48C57.09 42.16 53.39 41.16 49.62 40.48C45.68 39.79 41.68 39.43 37.68 39.41ZM38.08 54C37.47 54 36.87 54 36.26 54.07C32.82 54.17 29.4 54.5 26.01 55.07C24.31 55.32 22.62 55.65 20.95 56.07C19.52 56.46 18.67 57.93 19.05 59.37C19.15 59.73 19.32 60.07 19.56 60.36C20.27 61.26 21.47 61.62 22.56 61.26C27.38 60.19 32.3 59.6 37.24 59.5C39.41 59.46 41.59 59.56 43.75 59.81C47.53 60.18 51.25 61.05 54.81 62.37C57.19 63.24 59.47 64.35 61.63 65.67C62.88 66.53 64.59 66.23 65.48 65C66.32 63.75 65.98 62.05 64.73 61.21C64.67 61.17 64.61 61.13 64.54 61.1C60.83 58.84 56.82 57.12 52.63 55.98C47.88 54.7 42.99 54.04 38.08 54Z" fill="#FF0000"/>
</svg>
