<svg width="80" height="93" viewBox="0 0 80 93" fill="none" xmlns="http://www.w3.org/2000/svg">
<path d="M28.57 92.05C44.03 92.05 56.57 79.51 56.57 64.05V26.21C61.11 33.15 68.85 37.33 77.14 37.33C77.9 37.33 78.65 37.33 79.41 37.21V21.89C67.56 21.03 58.03 11.81 56.76 0H43.57L43.43 64.3C43.43 72.19 36.43 78.4 28.57 78.4C20.68 78.4 14.29 72 14.3 64.11C14.3 56.23 20.69 49.84 28.57 49.84C29.15 49.86 29.73 49.92 30.3 50V36.17C29.73 36.17 29.16 36.09 28.57 36.09C13.11 36.09 0.570007 48.63 0.570007 64.09C0.570007 79.55 13.11 92.09 28.57 92.09V92.05Z" fill="#FF0000"/>
</svg>
