<?xml version="1.0" encoding="UTF-8"?>
<svg id="Layer_1" data-name="Layer 1" xmlns="http://www.w3.org/2000/svg" viewBox="0 0 144 144">
  <defs>
    <style>
      .cls-1 {
        fill: red;
        stroke-width: 0px;
      }
    </style>
  </defs>
  <path class="cls-1" d="M60.57,118.05c15.46,0,28-12.54,28-28h0v-37.84c4.54,6.94,12.28,11.12,20.57,11.12.76,0,1.51,0,2.27-.12h0v-15.32c-11.85-.86-21.38-10.08-22.65-21.89h-13.19l-.14,64.3c0,7.89-7,14.1-14.86,14.1-7.89,0-14.28-6.4-14.27-14.29,0-7.88,6.39-14.27,14.27-14.27.58.02,1.16.08,1.73.16v-13.83c-.57,0-1.14-.08-1.73-.08-15.46,0-28,12.54-28,28s12.54,28,28,28v-.04Z"/>
  <path class="cls-1" d="M115.46,6c12.44.01,22.53,10.1,22.54,22.54v86.92c-.01,12.44-10.1,22.53-22.54,22.54H28.54c-12.44-.01-22.53-10.1-22.54-22.54V28.54c.01-12.44,10.1-22.53,22.54-22.54h86.92M115.46,0H28.54C12.8.04.04,12.8,0,28.54v86.92c.04,15.74,12.8,28.5,28.54,28.54h86.92c15.74-.04,28.5-12.8,28.54-28.54V28.54c-.04-15.74-12.8-28.5-28.54-28.54Z"/>
</svg>