<?xml version="1.0" encoding="UTF-8"?>
<svg id="Layer_1" data-name="Layer 1" xmlns="http://www.w3.org/2000/svg" viewBox="0 0 144 144">
  <defs>
    <style>
      .cls-1 {
        fill: red;
        stroke-width: 0px;
      }
    </style>
  </defs>
  <path class="cls-1" d="M99.85,39.78h-55.7c-9.46.03-17.12,7.69-17.15,17.15v30.14c.03,9.46,7.69,17.12,17.15,17.15h55.7c9.46-.03,17.12-7.69,17.15-17.15v-30.14c-.03-9.46-7.69-17.12-17.15-17.15ZM76.85,80.83l-13.85,8.02v-32.07l13.89,8,13.88,8-13.92,8.05Z"/>
  <path class="cls-1" d="M115.46,6c12.44.01,22.53,10.1,22.54,22.54v86.92c-.01,12.44-10.1,22.53-22.54,22.54H28.54c-12.44-.01-22.53-10.1-22.54-22.54V28.54c.01-12.44,10.1-22.53,22.54-22.54h86.92M115.46,0H28.54C12.8.04.04,12.8,0,28.54v86.92c.04,15.74,12.8,28.5,28.54,28.54h86.92c15.74-.04,28.5-12.8,28.54-28.54V28.54c-.04-15.74-12.8-28.5-28.54-28.54Z"/>
</svg>